<svg xmlns="http://www.w3.org/2000/svg" xmlns:svg="http://www.w3.org/2000/svg" xmlns:xlink="http://www.w3.org/1999/xlink" width="100%" height="100%" viewBox="0 0  1173 531" preserveAspectRatio="xMidYMid meet" zoomAndPan="disable"><defs id="svgEditorDefs"><path id="svgEditorClosePathDefs" stroke="black" fill="gray" style="vector-effect: non-scaling-stroke; stroke-width: 1px;"/></defs><rect id="svgEditorBackground" x="0" y="0" width="1173" height="531" style="fill: none; stroke: none;"/><path class="tSiennaShape1" d="M4,0v-1.5a2,2,0,0,0,-2,-2h-4a2,2,0,0,0,-2,2v3a2,2,0,0,0,2,2h4a2,2,0,0,0,2,-2Z" stroke="black" id="e1_shape" style="vector-effect: non-scaling-stroke; stroke-width: 0px; fill-opacity: 1;" transform="matrix(28.75 0 0 8.71429 283 152.5)" fill="gray"/><path class="tSiennaShape1" stroke="black" style="vector-effect: non-scaling-stroke; stroke-width: 0px;" transform="matrix(28.75 0 0 8.71429 283 152.5)" fill="gray" id="e2_shape" d="M 4.06956 9.86885 v -1.5 a 2 2 0 0 0 -2 -2 h -4 a 2 2 0 0 0 -2 2 v 3 a 2 2 0 0 0 2 2 h 4 a 2 2 0 0 0 2 -2 Z"/><path class="tSiennaShape1" stroke="black" style="stroke-width: 0px;" transform="matrix(28.75 0 0 8.71429 283 152.5)" fill="gray" id="e3_shape" d="M 4.10434 19.6229 v -1.5 a 2 2 0 0 0 -2 -2 h -4 a 2 2 0 0 0 -2 2 v 3 a 2 2 0 0 0 2 2 h 4 a 2 2 0 0 0 2 -2 Z"/></svg>