<?xml version="1.0" encoding="UTF-8" standalone="no"?>
<!-- Created with Inkscape (http://www.inkscape.org/) -->

<svg
   xmlns:dc="http://purl.org/dc/elements/1.1/"
   xmlns:cc="http://creativecommons.org/ns#"
   xmlns:rdf="http://www.w3.org/1999/02/22-rdf-syntax-ns#"
   xmlns:svg="http://www.w3.org/2000/svg"
   xmlns="http://www.w3.org/2000/svg"
   xmlns:sodipodi="http://sodipodi.sourceforge.net/DTD/sodipodi-0.dtd"
   xmlns:inkscape="http://www.inkscape.org/namespaces/inkscape"
   width="225mm"
   height="225mm"
   viewBox="0 0 797.24401 797.24396"
   id="svg12945"
   version="1.1"
   inkscape:version="0.91 r13725"
   sodipodi:docname="paydeposit.svg">
  <defs
     id="defs12947" />
  <sodipodi:namedview
     id="base"
     pagecolor="#ffffff"
     bordercolor="#666666"
     borderopacity="1.0"
     inkscape:pageopacity="0.0"
     inkscape:pageshadow="2"
     inkscape:zoom="0.295"
     inkscape:cx="375"
     inkscape:cy="520"
     inkscape:document-units="px"
     inkscape:current-layer="layer1"
     showgrid="false"
     inkscape:window-width="1366"
     inkscape:window-height="705"
     inkscape:window-x="-8"
     inkscape:window-y="-8"
     inkscape:window-maximized="1" />
  <metadata
     id="metadata12950">
    <rdf:RDF>
      <cc:Work
         rdf:about="">
        <dc:format>image/svg+xml</dc:format>
        <dc:type
           rdf:resource="http://purl.org/dc/dcmitype/StillImage" />
        <dc:title></dc:title>
      </cc:Work>
    </rdf:RDF>
  </metadata>
  <g
     inkscape:label="Layer 1"
     inkscape:groupmode="layer"
     id="layer1"
     transform="translate(0,-255.1182)">
    <g
       id="g13584"
       transform="matrix(0.10608398,0,0,-0.10608398,-66.951147,1134.0563)"
       style="fill:#454545;stroke:none">
      <path
         id="path13586"
         d="m 3918,8166 c -10,-7 -59,-16 -110,-20 -51,-4 -97,-11 -103,-15 -5,-5 -28,-11 -50,-14 -67,-8 -159,-29 -185,-42 -14,-7 -45,-15 -70,-19 -24,-4 -49,-10 -55,-15 -5,-4 -46,-18 -90,-31 -44,-13 -84,-27 -90,-31 -5,-4 -26,-10 -45,-14 -19,-4 -41,-11 -50,-16 -8,-4 -33,-15 -55,-24 -22,-9 -53,-23 -70,-30 -16,-8 -52,-23 -80,-34 -63,-24 -172,-80 -212,-109 -17,-12 -35,-22 -41,-22 -5,0 -27,-13 -48,-28 -21,-16 -47,-31 -57,-35 -23,-9 -242,-152 -287,-189 -19,-15 -57,-45 -83,-65 -26,-21 -62,-51 -80,-68 -18,-16 -52,-43 -76,-59 -57,-40 -417,-425 -430,-460 -2,-6 -23,-33 -47,-59 -24,-26 -61,-75 -84,-108 -22,-33 -49,-68 -60,-79 -11,-11 -20,-27 -20,-35 0,-8 -5,-15 -10,-15 -6,0 -13,-8 -17,-17 -3,-10 -12,-25 -19,-34 -13,-15 -38,-58 -85,-144 -12,-22 -28,-44 -35,-48 -8,-4 -14,-13 -14,-19 0,-15 -70,-157 -81,-164 -5,-3 -9,-13 -9,-22 0,-10 -13,-44 -30,-77 -16,-33 -30,-65 -30,-72 0,-6 -7,-24 -15,-40 -27,-53 -75,-182 -75,-201 0,-11 -7,-25 -15,-32 -8,-7 -15,-29 -15,-49 -1,-20 -7,-47 -15,-61 -8,-14 -14,-39 -15,-57 0,-17 -4,-34 -9,-38 -6,-3 -13,-27 -16,-53 -3,-26 -11,-58 -17,-72 -11,-27 -37,-165 -45,-245 -3,-27 -10,-56 -17,-64 -16,-20 -16,-1012 0,-1032 7,-8 14,-34 17,-59 11,-102 28,-197 42,-230 7,-19 17,-56 20,-82 3,-26 10,-50 16,-53 5,-4 9,-20 9,-36 0,-16 7,-46 15,-66 8,-19 15,-45 15,-57 0,-11 6,-33 14,-48 8,-15 17,-41 21,-60 4,-18 18,-49 31,-70 13,-21 24,-46 24,-57 0,-18 18,-65 66,-169 13,-29 24,-58 24,-64 0,-6 13,-32 28,-57 15,-25 36,-66 47,-91 10,-25 26,-54 35,-65 9,-11 24,-37 34,-58 9,-20 20,-37 25,-37 4,0 18,-21 32,-46 47,-89 158,-256 221,-331 24,-28 66,-80 93,-115 65,-81 382,-398 463,-463 35,-27 87,-69 115,-93 50,-41 253,-182 262,-182 3,0 24,-14 47,-30 22,-17 47,-30 55,-30 7,0 13,-4 13,-10 0,-5 24,-21 53,-36 68,-34 148,-77 202,-108 24,-15 48,-26 54,-26 5,0 38,-13 73,-28 35,-16 83,-37 108,-46 25,-10 53,-22 62,-27 10,-5 23,-9 30,-9 7,0 25,-6 40,-14 14,-8 44,-17 66,-21 22,-3 48,-13 59,-20 10,-8 28,-15 39,-15 12,0 35,-7 50,-15 16,-8 43,-15 61,-15 17,0 34,-4 37,-9 4,-5 30,-12 59,-16 28,-4 61,-12 72,-18 23,-12 164,-37 245,-44 30,-2 66,-9 79,-16 34,-17 948,-17 982,0 13,7 49,14 79,17 82,7 226,33 248,45 10,5 42,13 70,17 29,4 55,11 58,15 3,5 18,9 34,9 16,0 44,6 62,14 48,20 97,37 145,50 23,6 45,15 49,19 4,4 15,7 25,7 18,0 66,18 122,46 16,8 34,14 40,14 7,0 39,14 72,30 33,17 67,30 75,30 9,0 20,4 26,10 5,5 39,25 74,44 133,69 185,98 201,112 8,8 20,14 26,14 5,0 29,13 51,30 23,16 47,30 52,30 6,0 13,7 16,15 4,8 12,15 19,15 7,0 52,29 100,65 48,36 90,65 94,65 4,0 25,18 46,40 21,22 43,40 48,40 5,0 28,18 50,41 22,22 52,46 66,54 31,16 351,339 351,354 0,5 15,25 33,43 18,18 46,50 62,71 17,21 45,57 62,80 44,56 183,264 183,272 0,4 20,37 45,74 25,37 45,72 45,79 0,7 4,12 9,12 9,0 131,238 131,256 0,5 9,25 19,45 11,20 31,71 46,115 15,43 34,90 43,103 8,14 18,39 23,55 8,36 28,94 39,116 4,9 11,40 15,70 4,30 13,64 19,75 7,11 16,38 20,60 11,65 28,139 37,160 4,11 11,58 15,104 3,45 12,95 20,110 20,39 21,1023 0,1040 -8,7 -16,45 -21,104 -4,50 -10,97 -15,102 -4,6 -10,26 -13,45 -8,50 -33,160 -45,195 -6,17 -17,55 -25,85 -28,101 -61,205 -68,220 -5,8 -24,53 -43,100 -19,47 -46,107 -60,134 -15,27 -26,57 -26,66 0,10 -7,23 -15,30 -8,7 -15,21 -15,31 0,10 -4,20 -9,23 -11,7 -51,87 -51,102 0,5 -9,17 -20,27 -11,9 -20,22 -20,29 0,7 -14,31 -30,52 -17,22 -30,44 -30,49 0,11 -62,101 -72,105 -5,2 -8,10 -8,17 0,8 -6,20 -12,27 -7,7 -21,30 -31,49 -11,20 -32,51 -47,68 -16,17 -31,39 -34,49 -4,11 -19,31 -34,45 -15,14 -52,56 -82,94 -119,148 -577,583 -615,583 -6,0 -20,10 -31,21 -18,20 -130,99 -140,99 -2,0 -32,20 -66,45 -34,25 -66,45 -71,45 -4,0 -23,11 -40,24 -18,13 -48,31 -67,39 -20,8 -42,20 -50,28 -8,8 -40,25 -70,39 -30,13 -72,35 -92,47 -21,13 -45,23 -53,23 -9,0 -33,9 -53,20 -57,30 -188,80 -210,80 -11,0 -25,7 -32,15 -7,8 -21,15 -32,15 -16,0 -118,30 -243,72 -66,22 -233,56 -340,69 -44,6 -93,15 -110,22 -46,18 -994,21 -1017,3 z M 5864,7121 c 3,-4 19,-11 36,-15 26,-5 119,-62 228,-141 18,-13 80,-69 139,-125 115,-110 217,-182 291,-207 26,-9 57,-20 69,-26 12,-5 34,-6 50,-2 15,3 46,9 68,12 22,3 45,9 50,14 21,16 89,-19 152,-80 35,-33 63,-65 63,-71 0,-5 15,-25 33,-44 54,-58 117,-134 117,-143 0,-5 16,-24 35,-43 19,-19 35,-38 35,-43 0,-8 26,-44 62,-87 27,-32 168,-249 168,-259 0,-5 6,-14 14,-18 7,-4 23,-26 35,-48 23,-43 32,-58 70,-120 14,-22 35,-58 46,-80 11,-22 33,-60 49,-85 16,-25 49,-92 73,-150 25,-58 51,-118 59,-133 8,-16 14,-43 14,-62 0,-18 7,-38 15,-45 22,-18 21,-137 -2,-162 -9,-10 -23,-18 -32,-18 -9,0 -25,-6 -36,-14 -37,-25 -138,-76 -151,-76 -17,0 -317,-150 -398,-199 -33,-20 -86,-47 -116,-60 -30,-13 -59,-27 -65,-31 -12,-9 -132,-75 -204,-111 -30,-16 -57,-32 -60,-36 -3,-5 -31,-21 -61,-36 -30,-15 -77,-40 -105,-57 -27,-16 -61,-34 -74,-40 -13,-6 -37,-20 -53,-32 -31,-22 -98,-59 -185,-103 -29,-14 -55,-31 -58,-36 -4,-5 -27,-19 -53,-30 -26,-12 -54,-27 -62,-34 -8,-7 -42,-28 -75,-46 -88,-48 -96,-52 -143,-82 -23,-15 -62,-37 -85,-49 -23,-12 -49,-27 -57,-34 -15,-12 -78,-47 -189,-105 -30,-15 -57,-32 -60,-36 -3,-5 -31,-21 -61,-36 -30,-15 -77,-40 -105,-56 -27,-17 -75,-41 -105,-56 -30,-14 -63,-30 -72,-35 -10,-6 -24,-10 -31,-10 -8,0 -32,-12 -54,-28 -65,-45 -76,-51 -133,-78 -30,-14 -68,-35 -84,-47 -16,-12 -45,-29 -64,-38 -32,-17 -35,-17 -75,2 -23,10 -56,19 -74,19 -49,0 -62,9 -88,60 -31,62 -74,124 -181,262 -48,62 -180,189 -279,268 -37,30 -85,70 -106,88 -33,29 -43,33 -71,27 -18,-4 -39,-11 -48,-15 -8,-4 -55,-26 -105,-50 -83,-39 -154,-80 -181,-105 -6,-5 -42,-35 -79,-65 -38,-30 -114,-99 -170,-152 -56,-54 -106,-98 -111,-98 -5,0 -34,-25 -64,-56 -108,-110 -414,-287 -521,-301 -36,-5 -40,-8 -34,-27 34,-106 59,-426 36,-449 -6,-6 -11,-19 -11,-28 0,-28 -48,-77 -83,-84 -17,-4 -45,-13 -62,-20 -84,-37 -181,-75 -192,-75 -7,0 -32,-9 -55,-19 -24,-11 -61,-27 -83,-36 -22,-9 -48,-20 -57,-25 -10,-6 -27,-10 -38,-10 -12,0 -38,-9 -58,-19 -72,-37 -160,-71 -184,-71 -11,0 -31,-9 -45,-20 -14,-11 -32,-20 -39,-20 -21,0 -44,42 -44,79 0,19 -6,42 -14,50 -7,9 -19,45 -25,81 -28,153 -58,286 -71,310 -5,9 -12,41 -15,71 -4,30 -10,63 -14,74 -14,34 -41,152 -41,177 0,13 -5,29 -11,35 -7,7 -18,45 -25,85 -7,40 -18,93 -24,118 -6,25 -16,72 -22,105 -5,33 -16,76 -24,95 -7,19 -16,56 -20,83 -3,26 -10,50 -15,53 -5,3 -9,18 -9,34 0,16 -5,40 -11,54 -17,36 -3,93 24,101 12,3 31,10 42,14 36,14 89,33 120,41 53,15 120,41 130,51 5,5 18,9 30,9 11,0 29,7 39,15 11,8 27,15 36,15 8,0 56,20 105,45 50,24 97,45 106,45 9,0 35,14 57,30 23,17 45,30 50,30 4,0 36,20 70,45 34,25 64,45 66,45 8,0 75,47 117,82 59,49 339,325 339,333 0,5 19,29 43,56 23,26 55,64 70,86 29,40 79,107 100,134 7,8 23,31 36,50 14,19 30,38 38,42 7,4 13,13 13,19 0,6 12,25 28,44 15,18 45,56 67,84 47,60 73,75 140,85 28,4 61,13 75,20 14,7 47,16 74,20 27,3 56,10 65,15 27,13 83,28 145,39 32,6 64,15 70,20 6,5 31,12 56,16 49,7 78,15 155,39 28,9 60,16 73,16 12,0 33,6 45,14 12,8 48,18 80,21 31,4 60,11 63,16 3,5 19,9 36,9 29,0 46,-10 137,-87 21,-18 43,-33 49,-33 6,0 28,21 49,48 21,26 40,49 43,52 3,3 16,21 29,40 14,19 30,39 38,43 7,4 13,13 13,19 0,6 12,25 28,44 15,18 40,50 55,71 32,44 82,111 100,134 7,8 23,31 36,50 14,19 30,38 38,42 7,4 13,13 13,19 0,6 12,25 28,44 15,18 41,51 57,74 30,40 84,108 131,164 13,15 24,34 24,42 0,8 3,14 8,14 4,0 30,30 57,66 28,36 66,85 85,108 19,24 60,73 90,111 30,37 70,83 88,101 17,19 32,38 32,43 0,19 288,297 350,338 61,40 112,54 124,34 z"
         inkscape:connector-curvature="0" />
      <path
         id="path13588"
         d="m 5790,6852 c 0,-5 11,-19 25,-32 26,-25 34,-60 12,-60 -7,0 -21,9 -30,21 -18,20 -46,23 -50,4 -1,-5 14,-20 33,-33 43,-29 45,-46 4,-50 -20,-2 -36,4 -49,18 -33,37 -45,26 -45,-43 0,-40 -5,-70 -15,-83 -19,-25 -19,-68 0,-84 23,-19 32,-4 40,67 9,89 12,95 37,82 13,-7 42,-8 75,-4 37,4 59,3 69,-6 12,-9 17,-10 27,0 9,9 7,16 -11,29 -15,12 -21,24 -16,35 7,19 20,22 29,7 7,-12 55,-14 55,-2 0,12 -103,108 -122,115 -10,4 -18,11 -18,17 0,5 -11,10 -25,10 -14,0 -25,-4 -25,-8 z"
         inkscape:connector-curvature="0" />
      <path
         id="path13590"
         d="m 6613,6433 c -15,-5 1,-43 23,-56 16,-9 19,-43 4,-52 -5,-3 -22,8 -37,25 -21,22 -32,28 -43,21 -12,-8 -12,-13 4,-30 11,-12 24,-21 31,-21 14,0 37,-45 28,-54 -14,-14 -50,-4 -75,19 -40,37 -48,32 -48,-34 0,-33 -7,-71 -15,-87 -18,-35 -19,-66 -3,-82 26,-26 36,-11 44,66 l 9,77 79,3 c 62,2 82,-1 97,-14 17,-16 19,-16 26,1 4,13 0,23 -15,33 -12,8 -22,20 -22,27 0,19 27,26 40,9 17,-20 40,-18 40,4 0,29 -143,153 -167,145 z"
         inkscape:connector-curvature="0" />
    </g>
  </g>
</svg>
